<svg xmlns="http://www.w3.org/2000/svg" xmlns:xlink="http://www.w3.org/1999/xlink" width="186" height="80" viewBox="0 0 186 80">
    <defs>
        <path id="d4es3qa9fa" d="M0 0L26.376 0 26.376 24.42 0 24.42z"/>
        <path id="hnpfmmbdpc" d="M0 0L26.376 0 26.376 24.42 0 24.42z"/>
    </defs>
    <g fill="none" fill-rule="evenodd">
        <g>
            <g>
                <path fill="#000105" fill-rule="nonzero" d="M8.215 5.879v1.073C6.37 7.14 5.995 8.241 5.968 14.2c1.498.027 3.075.054 4.68.054 1.577 0 3.181-.027 4.732-.054-.054-5.96-.428-7.06-2.245-7.248V5.88s2.004.08 3.795.08c1.792 0 3.797-.08 3.797-.08v1.073c-1.952.188-2.246 1.423-2.246 8.483 0 7.086.294 7.892 2.246 8.16v1.074s-2.059-.08-3.85-.08-3.742.08-3.742.08v-1.074c1.897-.268 2.218-1.047 2.245-7.784-1.284-.028-2.62-.055-3.957-.055-1.845 0-3.69.027-5.455.081 0 6.711.322 7.49 2.247 7.758v1.074s-2.06-.08-3.85-.08c-1.792 0-3.743.08-3.743.08v-1.074c1.951-.268 2.246-1.074 2.246-8.16 0-7.06-.295-8.295-2.246-8.483V5.88s2.005.08 3.796.08 3.797-.08 3.797-.08M34.537 17.018l-2.888-8.08-3.127 8.107c.748 0 1.978.026 2.673.026.883 0 2.406-.026 3.342-.053m-6.577 1.53c-.535 1.477-.802 2.523-.802 3.275 0 1.074.588 1.53 1.818 1.718v1.128s-2.3-.134-3.289-.134c-1.016 0-3.074.134-3.074.134v-1.1c1.871-.511 2.352-2.31 3.743-5.584l4.973-12.08c.267-.054.749-.08 1.256-.08.481 0 .99.026 1.257.08l4.972 13.368c.776 2.094 1.284 3.785 2.915 4.268v1.128s-2.513-.134-3.529-.134c-1.017 0-3.503.134-3.503.134V23.54c1.07-.215 1.444-.644 1.444-1.315 0-.322-.08-.725-.214-1.181-.187-.671-.454-1.477-.829-2.55-1.015 0-2.914-.027-3.636-.027-1.149 0-2.7.053-3.502.08M59.721 15.005c0-6.684-.802-7.919-3.128-8.053V5.88s2.139.08 3.93.08c1.791 0 3.101-.08 3.101-.08v1.073c-1.978.268-2.245 1.342-2.245 8.831 0 2.363.025 5.906.107 9.342-.322.053-.856.053-1.177 0L47.77 10.79v4.885c0 6.684.802 7.704 3.129 7.919v1.074s-2.166-.08-3.957-.08c-1.793 0-3.102.08-3.102.08v-1.074c1.872-.242 2.245-1.208 2.245-7.678 0-7.569-.534-8.643-2.566-8.884V5.879c.348.026 1.738.053 2.3.053.774 0 1.897-.053 1.897-.053l12.005 13.529v-4.403M76.448 0c.455.241.802.67 1.096 1.047l-4.01 3.623-4.064-3.113c.374-.564.802-1.074 1.31-1.45l2.914 2.228L76.448 0zm-2.941 23.246c5.106 0 6.069-2.819 6.924-4.134h1.15c-.642 1.88-1.39 4.08-1.684 5.718-.775-.108-2.326-.161-2.994-.161H65.647v-.886c2.593-3.92 7.833-12.241 10.293-16.375h-2.032c-5.748 0-6.043 1.665-6.604 3.84h-1.123c.054-.78.054-2.148.054-3.008 0-.778 0-1.664-.054-2.523.856.108 2.246.188 2.941.188H79.95v.806c-2.54 4.16-7.753 12.616-10.347 16.535h3.904zM88.336 14.388c.214.027.4.027.481.027 4.465 0 5.16-.457 5.214-2.12H95.1s-.106 2.173-.106 2.978c0 .806.106 3.141.106 3.141h-1.07c-.052-2.12-.802-2.497-4.759-2.497-.267 0-.614.027-.935.027l.027 2.094c.026 4.564.026 5.154 4.01 5.154 2.513 0 3.877-.456 5.294-3.517h1.15c0 .027-.83 3.49-1.097 5.155-.829-.108-2.3-.161-3.048-.161l-3.636-.027h-4.277c-1.792 0-3.744.08-3.744.08v-1.074c1.926-.268 2.246-1.1 2.246-7.918 0-7.382-.267-8.563-2.246-8.778V5.88s2.086.107 3.717.107c1.15 0 3.663-.027 7.433-.054.802 0 2.192-.053 3.02-.161-.027.671-.053 1.45-.053 2.255 0 .912.026 2.04.054 2.845h-1.123c-.91-2.9-1.979-3.463-5.936-3.463-1.042 0-1.604.107-1.604.107s-.187 1.987-.187 4.645v2.228M107.114 15.998l-.909-.859.882-.751 2.593-3.194c1.07-1.29 1.872-2.55 1.872-3.329 0-.484-.294-.779-1.043-.806V5.88s3.422.134 4.251.134c.829 0 3.583-.134 3.583-.134v1.18c-2.647.242-4.197.86-7.513 4.94l-1.55 1.906c2.272 2.603 4.758 5.556 6.87 7.81 1.23 1.343 2.06 1.584 3.021 1.8v1.154s-2.646-.108-3.716-.108c-1.07 0-4.385.108-4.385.108v-1.155c.937 0 1.258-.295 1.258-.698 0-.402-.321-.94-.67-1.368l-4.544-5.45zm1.069-10.12v1.075c-1.951.187-2.165 1.422-2.165 8.482 0 7.086.294 7.891 2.246 8.16v1.074s-2.059-.08-3.85-.08c-1.792 0-3.743.08-3.743.08v-1.074c1.898-.242 2.246-1.074 2.246-7.757 0-7.544-.268-8.67-2.246-8.885V5.879s2.005.08 3.796.08 3.716-.08 3.716-.08zM135.254 15.676c0-5.288-2.432-8.59-6.283-8.59-3.368 0-5.855 2.497-5.855 7.919 0 5.53 2.54 8.456 6.283 8.456 3.61 0 5.855-2.711 5.855-7.785m3.556-.86c0 6.015-4.037 10.201-10.053 10.201-4.758 0-9.17-2.63-9.17-9.126 0-6.228 4.09-10.334 9.92-10.334 5.052 0 9.303 3.06 9.303 9.26M141.95 11.247c-.882-2.308-1.257-3.785-2.807-4.24V5.878s2.54.134 3.555.134c1.017 0 3.289-.134 3.289-.134v1.127c-1.016.053-1.444.59-1.444 1.396 0 .322.08.698.214 1.1.107.376.83 2.39 1.043 3.007l3.155 8.75 2.754-7.167c.989-2.47 1.497-4.16 1.497-5.26 0-1.209-.588-1.718-1.791-1.826V5.88s2.46.134 3.475.134c.989 0 2.887-.134 2.887-.134v1.1c-1.817.51-2.325 2.067-3.716 5.556-2.38 5.987-3.155 8-4.625 12.134-.267.053-.775.08-1.256.08-.482 0-.963-.027-1.23-.08-1.47-4.242-3.984-10.71-5-13.422" transform="translate(-817.000000, -2629.000000) translate(817.000000, 2629.000000)"/>
                <g>
                    <g transform="translate(-817.000000, -2629.000000) translate(817.000000, 2629.000000) translate(159.624105, 0.598217)">
                        <mask id="v49bvtqo3b" fill="#fff">
                            <use xlink:href="#d4es3qa9fa"/>
                        </mask>
                        <path fill="#000105" fill-rule="nonzero" d="M7.592 5.28v1.074c-1.951.188-2.246 1.423-2.246 8.482 0 7.087.295 7.893 2.246 8.16v1.074s-2.058-.08-3.85-.08c-1.791 0-3.742.08-3.742.08v-1.074c1.925-.267 2.246-1.073 2.246-8.026 0-7.22-.295-8.428-2.246-8.616V5.28s2.005.08 3.796.08 3.796-.08 3.796-.08" mask="url(#v49bvtqo3b)"/>
                    </g>
                    <g transform="translate(-817.000000, -2629.000000) translate(817.000000, 2629.000000) translate(159.624105, 0.598217)">
                        <mask id="h0e7bn3brd" fill="#fff">
                            <use xlink:href="#hnpfmmbdpc"/>
                        </mask>
                        <path fill="#000105" fill-rule="nonzero" d="M18.168 3.59c-.107-.243-.24-.591-.266-.86L22.419.126c.481-.268 1.016-.188 1.39 1.02.321.913.027 1.37-.64 1.477l-5.001.966zm1.176 20.83c-6.041 0-9.785-3.651-9.785-9.289 0-6.2 4.519-10.173 10.24-10.173 2.513 0 4.545.779 6.043.779h.294c-.027.751-.027 1.476-.027 2.174 0 .751 0 2.12.027 2.818h-1.23c-.295-1.503-1.364-4.24-5.134-4.24-3.315 0-6.683 2.12-6.683 7.81 0 5.906 3.663 8.59 7.084 8.59 3.636 0 4.84-3.302 4.92-4.402h1.283c-.24 1.691-.401 3.435-.534 5.046-1.605 0-3.53.887-6.498.887z" mask="url(#h0e7bn3brd)"/>
                    </g>
                </g>
                <path fill="#E4AA3E" fill-rule="nonzero" d="M8.188 43.8c1.364-.804 2.888-2.146 2.888-4.133 0-1.127-.536-1.906-1.632-1.906-.775 0-2.138.376-2.138 2.497 0 .858.214 2.013.721 3.194l.16.349zm-4.866 6.148c0 2.47 1.952 3.22 3.77 3.22 1.39 0 2.593-.429 3.502-.992-1.951-2.04-3.663-4.376-4.705-6.281-1.417.938-2.567 2.281-2.567 4.053zM15.38 45.25c-.615.027-1.257 0-1.952 0-.027-.214-.08-.509-.08-.805 0-.322.053-.697.16-.966 3.475 0 5.989-.188 8.876-.43.161.43.348 1.638.214 2.04l-4.25.188c-.562 1.289-2.113 3.168-4.813 5.637 2.166 2.067 4.545 3.597 6.497 3.597.695 0 1.55-.188 2.245-.645l.535.51c-1.096 1.988-2.834 2.658-4.198 2.658-2.218 0-4.891-1.798-7.298-4.133-1.764 1.503-3.476 2.523-5.855 2.523-2.915 0-5.187-1.53-5.187-4.429 0-2.926 2.326-4.43 5.214-5.852l-.16-.35c-.536-1.18-.75-2.2-.75-3.086 0-3.275 2.915-5.744 5.936-5.744 2.594 0 3.61 1.798 3.61 3.248 0 2.47-2.941 4.214-5.562 5.368.963 1.799 2.514 3.866 4.251 5.637 1.15-1.395 2.166-3.355 2.567-4.966z" transform="translate(-817.000000, -2629.000000) translate(817.000000, 2629.000000)"/>
                <path fill="#000105" fill-rule="nonzero" d="M37.782 42.566v3.677c.561.108 1.096.161 1.658.161 2.272 0 4.33-.965 4.33-3.973 0-2.496-1.417-4.643-4.223-4.643-1.043 0-1.578.134-1.578.134s-.187 2.524-.187 4.644m-5.32 12.509v-1.073c1.95-.27 2.245-1.048 2.245-8.134 0-7.06-.294-8.322-2.246-8.51v-1.073s2.086.107 3.61.107 3.583-.107 4.411-.107c4.17 0 6.737 2.013 6.737 5.636 0 4.35-3.69 5.933-7.78 5.933-.534 0-1.096-.027-1.63-.08v.751c.026 4.295.561 5.396 2.887 5.423v1.127s-2.647-.08-4.572-.08c-1.657 0-3.663.08-3.663.08M57.808 47.425l-2.887-8.08-3.128 8.107c.748 0 1.979.026 2.674.026.882 0 2.405-.026 3.341-.053m-6.576 1.53c-.535 1.476-.802 2.523-.802 3.274 0 1.074.588 1.53 1.818 1.718v1.128s-2.3-.134-3.29-.134c-1.015 0-3.074.134-3.074.134v-1.1c1.872-.51 2.353-2.31 3.744-5.584l4.973-12.08c.267-.053.748-.08 1.256-.08.48 0 .988.027 1.256.08l4.973 13.368c.776 2.094 1.283 3.785 2.914 4.268v1.128s-2.512-.134-3.528-.134c-1.017 0-3.503.134-3.503.134v-1.128c1.07-.214 1.444-.644 1.444-1.315 0-.322-.08-.724-.214-1.18-.187-.672-.455-1.477-.83-2.55-1.015 0-2.913-.028-3.635-.028-1.15 0-2.7.054-3.502.08M72.421 45.734c.401.08.775.134 1.471.134 3.876 0 4.384-2.282 4.384-3.812 0-2.201-1.016-4.24-3.876-4.24-.32 0-1.31.025-1.712.08-.134.992-.24 3.972-.267 7.838m1.818 1.61c-.695 0-1.39-.027-1.818-.027v.242c0 6.067.214 6.12 2.513 6.442v1.073s-2.326-.08-4.117-.08c-1.792 0-3.743.08-3.743.08v-1.073c2.058-.268 2.219-1.128 2.219-8.106 0-7.356-.294-8.349-2.219-8.537v-1.073s2.112.134 3.556.134 3.582-.134 4.652-.134c4.678 0 6.55 2.577 6.55 5.154 0 2.523-1.764 4.51-4.331 5.18 1.016 1.665 3.529 4.886 5.266 6.577.856.805 1.498 1.208 2.62 1.557v.859c-.801.482-1.604.698-2.378.698-1.391 0-2.727-.725-3.904-2.067-1.15-1.315-3.743-5.154-4.866-6.899M84.844 41.975c.027-.537.08-2.925.08-3.785 0-.859-.053-1.261-.08-1.986.749.107 2.38.134 3.02.134 3.45.027 4.333.054 5.562.054 1.23 0 2.006-.027 5.294-.054.909 0 2.192-.027 3.02-.134-.026.725-.08 1.127-.08 1.986 0 .86.054 3.248.08 3.785h-1.176c-.347-1.664-.882-4.16-4.144-4.16h-1.203c-.133 1.154-.266 3.839-.266 8.643 0 6.765.266 7.302 2.378 7.543v1.074s-2.192-.08-3.983-.08c-1.79 0-3.903.08-3.903.08v-1.074c2.165-.268 2.406-.859 2.406-7.811 0-4.698 0-7.302-.214-8.375h-1.203c-3.503 0-4.064 2.496-4.412 4.16h-1.176M120.137 45.412c0-6.685-.802-7.92-3.129-8.054v-1.073s2.14.08 3.93.08c1.792 0 3.102-.08 3.102-.08v1.073c-1.978.269-2.246 1.343-2.246 8.832 0 2.362.027 5.906.107 9.341-.32.054-.856.054-1.176 0l-12.539-14.334v4.885c0 6.684.802 7.704 3.128 7.92v1.073s-2.166-.08-3.957-.08-3.101.08-3.101.08v-1.073c1.871-.242 2.246-1.209 2.246-7.678 0-7.57-.535-8.643-2.568-8.885v-1.154c.349.027 1.739.053 2.3.053.775 0 1.899-.053 1.899-.053l12.004 13.529v-4.402M131.75 44.794c.213.027.4.027.48.027 4.465 0 5.16-.456 5.214-2.12h1.07s-.108 2.174-.108 2.979c0 .805.107 3.14.107 3.14h-1.07c-.052-2.12-.801-2.496-4.758-2.496-.268 0-.615.027-.936.027l.027 2.094c.026 4.563.026 5.153 4.01 5.153 2.514 0 3.877-.456 5.294-3.516h1.15c0 .027-.83 3.49-1.097 5.154-.828-.107-2.3-.161-3.048-.161l-3.636-.027h-4.277c-1.792 0-3.743.081-3.743.081v-1.074c1.924-.268 2.246-1.1 2.246-7.918 0-7.383-.267-8.564-2.246-8.779v-1.073s2.085.107 3.716.107c1.149 0 3.663-.027 7.432-.054.803 0 2.192-.053 3.022-.16-.027.67-.054 1.449-.054 2.254 0 .912.027 2.04.054 2.845h-1.124c-.909-2.898-1.978-3.462-5.935-3.462-1.042 0-1.604.107-1.604.107s-.187 1.986-.187 4.644v2.228M149.43 45.734c.402.08.776.134 1.471.134 3.877 0 4.385-2.282 4.385-3.812 0-2.201-1.016-4.24-3.877-4.24-.32 0-1.31.025-1.711.08-.133.992-.24 3.972-.267 7.838m1.818 1.61c-.695 0-1.39-.027-1.818-.027v.242c0 6.067.214 6.12 2.513 6.442v1.073s-2.326-.08-4.117-.08c-1.792 0-3.743.08-3.743.08v-1.073c2.058-.268 2.219-1.128 2.219-8.106 0-7.356-.294-8.349-2.22-8.537v-1.073s2.113.134 3.557.134c1.443 0 3.581-.134 4.651-.134 4.68 0 6.55 2.577 6.55 5.154 0 2.523-1.764 4.51-4.33 5.18 1.015 1.665 3.529 4.886 5.266 6.577.856.805 1.498 1.208 2.62 1.557v.859c-.802.482-1.604.698-2.379.698-1.39 0-2.727-.725-3.904-2.067-1.149-1.315-3.742-5.154-4.865-6.899M171.646 36.285v1.073c-1.95.189-2.245 1.423-2.245 8.483 0 7.087.294 7.892 2.245 8.16v1.074s-2.058-.08-3.849-.08c-1.792 0-3.743.08-3.743.08V54c1.925-.268 2.246-1.073 2.246-8.026 0-7.22-.295-8.428-2.246-8.617v-1.073s2.005.08 3.796.08c1.792 0 3.796-.08 3.796-.08M6.135 74.465c0-1.793-.707-2.634-2.276-2.634-1.462 0-2.397.853-2.397 2.779 0 1.901.91 2.658 2.264 2.658 1.487 0 2.41-.793 2.41-2.803m-2.493 3.947C1.51 78.412 0 77.305 0 74.694c0-2.84 1.785-4.019 3.93-4.019 2.385 0 3.667 1.336 3.667 3.574 0 3.007-1.582 4.163-3.954 4.163M10.269 71.939v5.197c.444.012 1.054.012 1.246.012 1.881 0 2.805-.758 2.805-2.743 0-1.636-.66-2.466-2.9-2.466h-1.151zm-1.414-1.143h2.756c2.996 0 4.17 1.263 4.17 3.49 0 3.055-1.653 4.006-4.302 4.006h-2.6v-.025h-.024v-7.471zM21.16 78.292c-.251.024-.587.024-.91.024-.324 0-.636 0-.863-.024l-2.733-7.496c.24-.013.504-.024.755-.024.252 0 .503.011.756.024l1.641 4.62.563 1.624.516-1.72 1.461-4.524c.24-.013.48-.024.72-.024s.491.011.73.024l-2.552 7.496h-.084M25.41 76.547v-5.751c.24-.013.48-.013.707-.013.228 0 .456 0 .683.013v5.75c0 2.094-.731 2.961-2.169 3.454-.263-.253-.48-.542-.587-.902 1.079-.554 1.366-1.119 1.366-2.551M30.417 71.95v2.034h3.008c.011.145.011.337.011.529 0 .193 0 .398-.011.554h-3.008v2.094h3.966c0 .192.012.372.012.565 0 .192-.012.385-.012.566h-5.38v-7.496h5.177c.012.205.012.384.012.577 0 .193 0 .385-.012.578h-3.763M35.642 71.373c0-.192.011-.385.025-.577h6.506c.012.192.012.385.012.577 0 .193 0 .373-.012.566h-2.564v6.353c-.228.012-.456.023-.696.023-.239 0-.479-.011-.706-.023V71.94h-2.54c-.014-.193-.025-.373-.025-.566M43.697 70.796c.035 0 .324-.012.623-.012.3 0 .611.012.696.012h.275l.995 1.504 2.803 4.247-.024-1.264v-4.487c.216-.012.444-.025.66-.025.215 0 .43.013.659.025v7.496c-.216.012-.503.024-.779.024-.287 0-.563-.012-.779-.024l-1.03-1.577-2.769-4.187-.011 1.275v4.489c-.229.012-.444.024-.66.024-.216 0-.443-.012-.659-.024v-7.496M52.571 70.796c.228-.012.468-.012.708-.012.239 0 .467 0 .706.012v7.496c-.239.024-.467.024-.706.024-.24 0-.48 0-.708-.024v-7.496M58.246 68.1l1.474 1.216 1.462-1.227c.252.204.504.493.66.745l-1.594 1.324c-.096.012-.324.024-.551.024-.228 0-.467-.012-.564-.024l-1.57-1.3c.216-.288.444-.553.683-.757m3.871 3.465c0 .204-.011.409-.024.613-.647-.217-1.317-.288-2.06-.288-1.702 0-2.77.842-2.77 2.707 0 1.817 1.068 2.623 2.733 2.623.839 0 1.474-.12 2.121-.325.013.204.013.409.013.613 0 .205 0 .41-.013.602-.719.24-1.594.301-2.397.301-2.204 0-3.918-.963-3.918-3.706 0-2.852 1.81-4.03 4.29-4.03.72 0 1.426.095 2.001.289.013.204.024.396.024.601M65.862 75.091h-.49v3.2c-.24.024-.468.024-.707.024-.24 0-.48 0-.707-.023v-7.496c.227-.012.467-.012.707-.012.239 0 .467 0 .707.012v3.249h.48l2.623-3.25c.252-.011.504-.011.767-.011.252 0 .516 0 .767.012l-2.996 3.693 3.176 3.803c-.251.012-.504.023-.755.023-.312 0-.611-.011-.923-.023l-2.649-3.2M76.767 74.465c0-1.793-.707-2.634-2.276-2.634-1.462 0-2.397.853-2.397 2.779 0 1.901.911 2.658 2.265 2.658 1.486 0 2.408-.793 2.408-2.803m-2.491 3.947c-2.134 0-3.644-1.107-3.644-3.718 0-2.84 1.785-4.019 3.93-4.019 2.385 0 3.667 1.336 3.667 3.574 0 3.007-1.581 4.163-3.953 4.163M84.22 71.939v5.197c.444.012 1.055.012 1.246.012 1.882 0 2.805-.758 2.805-2.743 0-1.636-.66-2.466-2.9-2.466h-1.15zm-1.414-1.143h2.757c2.996 0 4.17 1.263 4.17 3.49 0 3.055-1.654 4.006-4.302 4.006H82.83v-.025h-.024v-7.471zM92.644 71.806v2.707h.995c1.222 0 1.69-.505 1.69-1.456 0-.841-.407-1.251-1.655-1.251h-1.03zm-1.414-1.01h2.672c1.99 0 2.864.601 2.864 2.105 0 1.275-.682 1.985-1.581 2.262l2.205 3.129c-.228.024-.54.035-.85.035-.277 0-.553-.011-.78-.023l-1.858-2.78h-1.258v2.768c-.24.024-.467.024-.707.024-.24 0-.48 0-.707-.024v-7.496zM98.504 75.367v-4.571c.227-.012.467-.012.707-.012.239 0 .467 0 .695.012v4.415c0 1.552.754 2.045 1.881 2.045 1.378 0 1.93-.661 1.93-2.045v-4.415c.227-.012.443-.012.67-.012.228 0 .457 0 .684.012v4.523c0 2.166-1.139 3.093-3.368 3.093-1.965 0-3.2-.698-3.2-3.045M108.096 68.149l1.474 1.215 1.462-1.227c.251.204.503.493.659.745l-1.594 1.324c-.095.012-.324.024-.551.024-.228 0-.467-.012-.563-.024l-1.57-1.3c.215-.288.443-.553.683-.757m3.75 2.803c.013.204.013.397.013.602 0 .204 0 .409-.012.601-.647-.253-1.33-.35-2.049-.35-1.067 0-1.57.302-1.57.952 0 .697.827.938 1.737 1.215 1.187.361 2.217.77 2.217 2.178 0 1.696-1.318 2.262-2.972 2.262-1.006 0-1.69-.169-2.312-.373-.012-.169-.012-.35-.012-.53 0-.253.012-.493.035-.697.755.276 1.438.469 2.277.469.96 0 1.618-.24 1.618-1.01 0-.71-.755-.975-1.666-1.228-1.198-.337-2.312-.867-2.312-2.19 0-1.504 1.15-2.177 2.935-2.177.911 0 1.583.12 2.074.276M113.359 71.373c0-.192.012-.385.024-.577h6.506c.013.192.013.385.013.577 0 .193 0 .373-.013.566h-2.563v6.353c-.228.012-.456.023-.696.023-.24 0-.48-.011-.706-.023V71.94h-2.541c-.012-.193-.024-.373-.024-.566M125.6 78.292c-.252.024-.588.024-.912.024-.323 0-.635 0-.863-.024l-2.73-7.496c.238-.013.502-.024.753-.024.252 0 .504.011.756.024l1.642 4.62.563 1.624.514-1.72 1.463-4.524c.24-.013.48-.024.719-.024.24 0 .492.011.731.024l-2.553 7.496h-.084M134.922 74.465c0-1.793-.707-2.634-2.277-2.634-1.462 0-2.397.853-2.397 2.779 0 1.901.911 2.658 2.266 2.658 1.486 0 2.408-.793 2.408-2.803m-2.492 3.947c-2.133 0-3.643-1.107-3.643-3.718 0-2.84 1.785-4.019 3.93-4.019 2.385 0 3.667 1.336 3.667 3.574 0 3.007-1.582 4.163-3.954 4.163" transform="translate(-817.000000, -2629.000000) translate(817.000000, 2629.000000)"/>
            </g>
        </g>
    </g>
</svg>
